<?xml version="1.0" standalone="no"?>
<!DOCTYPE svg PUBLIC "-//W3C//DTD SVG 1.1//EN" "http://www.w3.org/Graphics/SVG/1.1/DTD/svg11.dtd" >
<svg xmlns="http://www.w3.org/2000/svg">
<metadata>Generated by IcoMoon</metadata>
<defs>
<font id="iconitos" horiz-adv-x="1024">
<font-face units-per-em="1024" ascent="960" descent="-64" />
<missing-glyph horiz-adv-x="1024" />
<glyph unicode="&#x20;" horiz-adv-x="512" d="" />
<glyph unicode="&#xe900;" glyph-name="Beisbol_cumple" d="M911.36 609.792h-294.912c63.488 20.48 129.024 63.488 155.648 90.112 57.344 57.344 57.344 149.504 0 206.848s-149.504 57.344-206.848 0c-16.384-16.384-36.864-45.056-53.248-75.776-16.384 30.72-36.864 59.392-53.248 75.776-57.344 57.344-149.504 57.344-206.848 0s-57.344-149.504 0-206.848c24.576-24.576 92.16-69.632 155.648-90.112h-294.912c-20.48 0-36.864-16.384-36.864-36.864v-174.080c0-20.48 16.384-36.864 36.864-36.864h36.864v-372.736c0-20.48 16.384-36.864 36.864-36.864h229.376c0 6.144 0 655.36 0 661.504h188.416c0-6.144 0-657.408 0-661.504h229.376c20.48 0 36.864 16.384 36.864 36.864v370.688h36.864c20.48 0 36.864 16.384 36.864 36.864v174.080c4.096 22.528-12.288 38.912-32.768 38.912zM317.44 765.44c-20.48 20.48-20.48 53.248 0 73.728s53.248 20.48 73.728 0c12.288-12.288 34.816-45.056 51.2-81.92 12.288-26.624 20.48-63.488 20.48-67.584-38.912 6.144-118.784 49.152-145.408 75.776zM557.056 691.712c2.048 20.48 12.288 49.152 22.528 67.584 18.432 36.864 38.912 69.632 51.2 81.92 20.48 20.48 53.248 20.48 73.728 0s20.48-53.248 0-73.728c-24.576-28.672-106.496-73.728-147.456-75.776z" />
<glyph unicode="&#xe901;" glyph-name="Beisbol_dni" d="M763.904 908.8c0 12.288-6.144 22.528-14.336 30.72s-20.48 10.24-32.768 8.192l-419.84-86.016h466.944v47.104zM417.792 269.824h71.68v83.968h-83.968c2.048-28.672 6.144-57.344 12.288-83.968zM526.336 355.84v-83.968h71.68c6.144 26.624 12.288 55.296 12.288 83.968h-83.968zM526.336 583.168v-67.584h57.344c-14.336 32.768-34.816 59.392-57.344 67.584zM649.216 392.704h69.632c0 0 0 0 0 0-2.048 30.72-12.288 59.392-26.624 86.016 0 0-2.048 0-2.048 0h-55.296c8.192-26.624 12.288-55.296 14.336-86.016zM432.128 515.584h57.344v67.584c-22.528-8.192-43.008-34.816-57.344-67.584zM649.216 355.84c-2.048-30.72-6.144-59.392-12.288-83.968h55.296c0 0 2.048 0 2.048 0 14.336 24.576 22.528 55.296 26.624 86.016 0 0 0 0 0 0l-71.68-2.048zM405.504 392.704h83.968v83.968h-71.68c-6.144-24.576-10.24-53.248-12.288-83.968zM368.64 392.704c2.048 30.72 6.144 59.392 12.288 83.968h-55.296c0 0-2.048 0-2.048 0-14.336-24.576-22.528-55.296-26.624-86.016 0 0 0 0 0 0l71.68 2.048zM598.016 476.672h-71.68v-83.968h83.968c0 30.72-4.096 59.392-12.288 83.968zM417.792 566.784c-26.624-12.288-49.152-30.72-67.584-51.2h43.008c6.144 18.432 14.336 34.816 24.576 51.2zM600.064 181.76c26.624 12.288 49.152 30.72 67.584 51.2h-43.008c-6.144-18.432-14.336-36.864-24.576-51.2zM348.16 232.96c18.432-20.48 43.008-38.912 67.584-51.2-10.24 14.336-18.432 32.768-26.624 51.2h-40.96zM790.528 816.64h-557.056c-18.432 0-32.768-14.336-32.768-32.768v-800.768c0-18.432 14.336-32.768 32.768-32.768h557.056c18.432 0 32.768 14.336 32.768 32.768v800.768c0 18.432-14.336 32.768-32.768 32.768zM507.904 124.416c-137.216 0-249.856 112.64-249.856 249.856s112.64 249.856 249.856 249.856 249.856-112.64 249.856-249.856c0-139.264-110.592-249.856-249.856-249.856zM526.336 165.376c22.528 8.192 43.008 32.768 57.344 67.584h-57.344v-67.584zM489.472 165.376v67.584h-57.344c14.336-34.816 34.816-59.392 57.344-67.584zM368.64 355.84h-69.632c0 0 0 0 0 0 2.048-30.72 12.288-59.392 26.624-86.016 0 0 2.048 0 2.048 0h55.296c-10.24 26.624-14.336 55.296-14.336 86.016zM667.648 515.584c-18.432 20.48-43.008 38.912-67.584 51.2 10.24-14.336 18.432-32.768 26.624-51.2h40.96z" />
<glyph unicode="&#xe902;" glyph-name="Beisbol_email" d="M665.6 345.6l333.824-266.24v546.816zM24.576 626.176v-546.816l333.824 266.24zM397.312 351.744l96.256-81.92c10.24-8.192 26.624-8.192 36.864 0l96.256 79.872c0 2.048 6.144 6.144 8.192 6.144l339.968 286.72h-8.192c2.048 6.144 2.048 12.288 0 18.432l-53.248 169.984-823.296-184.32c-2.048 0-4.096-2.048-6.144-2.048h-36.864l339.968-286.72c4.096 0 8.192-4.096 10.24-6.144zM890.88 802.304l45.056-143.36c2.048-4.096 0-6.144-2.048-8.192s-4.096-4.096-8.192-4.096h-69.632l-22.528 71.68-157.696-34.816 12.288-36.864h-487.424l690.176 155.648zM552.96 251.392c-12.288-10.24-26.624-14.336-40.96-14.336s-28.672 4.096-40.96 14.336l-90.112 75.776-329.728-266.24h921.6l-329.728 266.24-90.112-75.776zM497.664 769.536h-407.552c-8.192 0-16.384-6.144-16.384-14.336v-83.968c4.096 2.048 8.192 4.096 10.24 4.096l413.696 94.208z" />
<glyph unicode="&#xe903;" glyph-name="Beisbol_home" d="M940.032 226.816l26.624 190.464c-26.624-10.24-59.392-18.432-100.352-26.624-96.256-18.432-225.28-28.672-360.448-28.672s-266.24 10.24-362.496 28.672c-40.96 8.192-75.776 16.384-100.352 26.624l26.624-190.464c2.048-6.144 6.144-14.336 10.24-18.432 34.816-28.672 108.544-63.488 256-79.872v157.696c0 14.336 12.288 26.624 26.624 26.624h286.72c14.336 0 26.624-12.288 26.624-26.624v-157.696c147.456 14.336 221.184 49.152 256 79.872 2.048 4.096 6.144 12.288 8.192 18.432zM987.136 574.976c-4.096-2.048-6.144-4.096-10.24-4.096-26.624-12.288-63.488-22.528-112.64-30.72-96.256-18.432-225.28-28.672-360.448-28.672s-264.192 8.192-360.448 26.624c-47.104 8.192-86.016 20.48-112.64 30.72-4.096 2.048-8.192 4.096-10.24 6.144l16.384-118.784c2.048 0 4.096-2.048 6.144-4.096 24.576-10.24 59.392-20.48 104.448-28.672 94.208-18.432 221.184-26.624 354.304-26.624s260.096 10.24 354.304 26.624c45.056 8.192 81.92 18.432 104.448 28.672 2.048 2.048 4.096 2.048 6.144 4.096l20.48 118.784zM43.008 599.552c24.576-10.24 59.392-20.48 104.448-28.672v0c2.048 0 2.048 2.048 4.096 2.048 79.872 18.432 208.896 28.672 350.208 28.672s274.432-10.24 352.256-30.72c0 0 2.048 0 2.048-2.048 0 0 0 0 0 0 45.056 8.192 81.92 18.432 104.448 28.672 20.48 8.192 26.624 16.384 28.672 20.48 0 2.048 0 2.048 0 2.048 0 2.048-6.144 10.24-30.72 22.528-10.24 4.096-24.576 10.24-38.912 14.336v53.248l81.92 49.152c4.096 2.048 4.096 8.192 0 10.24l-92.16 53.248c-2.048 0-4.096 2.048-6.144 2.048-8.192 0-16.384-8.192-16.384-16.384v-145.408c-10.24 2.048-22.528 4.096-32.768 6.144-90.112 16.384-208.896 26.624-337.92 26.624v49.152l81.92 49.152c4.096 2.048 4.096 8.192 0 10.24l-86.016 59.392c-2.048 0-4.096 2.048-6.144 2.048-8.192 0-16.384-8.192-16.384-16.384v-147.456c-129.024 0-249.856-10.24-339.968-26.624-10.24-2.048-20.48-4.096-30.72-6.144v45.056l81.92 49.152c4.096 2.048 4.096 8.192 0 10.24l-94.208 53.248c-2.048 0-4.096 0-6.144 0-8.192 0-16.384-8.192-16.384-16.384v-151.552c-16.384-4.096-30.72-10.24-40.96-14.336-24.576-10.24-30.72-20.48-30.72-22.528 0 0 0-2.048 0-2.048 4.096-4.096 12.288-12.288 30.72-20.48zM786.432 558.592c-75.776 10.24-176.128 18.432-284.672 18.432-106.496 0-206.848-6.144-282.624-16.384 81.92-10.24 180.224-16.384 284.672-16.384 102.4-2.048 198.656 4.096 282.624 14.336zM366.592 282.112v-186.368l-32.768-12.288-20.48-6.144c-6.144-2.048-10.24-8.192-10.24-14.336v-20.48c0-6.144 4.096-10.24 10.24-10.24h380.928c6.144 0 10.24 4.096 10.24 10.24v20.48c0 6.144-4.096 12.288-10.24 14.336l-20.48 6.144-32.768 12.288v186.368h-38.912v-139.264h-194.56v139.264h-40.96z" />
<glyph unicode="&#xe904;" glyph-name="Beisbol_left" d="M249.856 448l466.944 466.944 57.344-57.344-411.648-409.6 411.648-409.6-57.344-57.344zM800.768 857.6l-409.6-409.6 409.6-409.6-83.968-83.968-493.568 493.568 493.568 493.568 83.968-83.968zM716.8 9.728l28.672 28.672-409.6 409.6 409.6 409.6-28.672 28.672-438.272-438.272 438.272-438.272z" />
<glyph unicode="&#xe905;" glyph-name="Beisbol_logout" d="M522.24 474.624c47.104 0 71.68 38.912 71.68 86.016v299.008c0 47.104-24.576 86.016-71.68 86.016s-71.68-38.912-71.68-86.016v-299.008c0-47.104 24.576-86.016 71.68-86.016zM698.368 869.888c-10.24 4.096-20.48 4.096-30.72-4.096-10.24-4.096-12.288-16.384-12.288-26.624v-112.64c0-12.288 4.096-24.576 14.336-30.72 92.16-53.248 151.552-153.6 151.552-266.24 0-169.984-139.264-307.2-307.2-307.2-169.984 0-307.2 137.216-307.2 307.2 0 112.64 57.344 212.992 149.504 266.24 10.24 6.144 12.288 18.432 12.288 30.72v112.64c0 12.288-2.048 22.528-12.288 28.672s-20.48 8.192-30.72 4.096c-172.032-73.728-290.816-243.712-290.816-442.368 0-264.192 215.040-479.232 479.232-479.232s477.184 215.040 477.184 479.232c0 198.656-120.832 368.64-292.864 440.32z" />
<glyph unicode="&#xe906;" d="M32.768 712.192h958.464v-530.432h-958.464v530.432z" />
<glyph unicode="&#xe907;" d="M991.232 163.328h-958.464c-10.24 0-20.48 8.192-20.48 20.48v528.384c0 10.24 8.192 20.48 20.48 20.48h958.464c10.24 0 20.48-8.192 20.48-20.48v-530.432c0-10.24-10.24-18.432-20.48-18.432zM53.248 204.288h917.504v487.424h-917.504v-487.424z" />
<glyph unicode="&#xe908;" d="M919.552 550.4v-204.8c-49.152 0-90.112-40.96-90.112-90.112h-632.832c0 49.152-40.96 90.112-92.16 90.112 0 0 0 0 0 0v204.8c0 0 0 0 0 0 51.2 0 92.16 40.96 92.16 92.16 0 0 0 0 0 0h632.832c0 0 0 0 0 0-2.048-51.2 38.912-92.16 90.112-92.16 0 0 0 0 0 0z" />
<glyph unicode="&#xe909;" d="M829.44 232.96h-632.832c-10.24 0-20.48 8.192-20.48 20.48 0 38.912-32.768 71.68-71.68 71.68v0c-10.24 0-20.48 8.192-20.48 20.48v204.8c0 10.24 8.192 20.48 20.48 20.48v0c38.912 0 71.68 32.768 71.68 71.68v0c0 10.24 8.192 20.48 20.48 20.48h632.832c10.24 0 20.48-8.192 20.48-20.48v0c0-38.912 32.768-71.68 71.68-71.68v0c10.24 0 20.48-8.192 20.48-20.48v-204.8c0-10.24-8.192-20.48-20.48-20.48-38.912 0-69.632-30.72-69.632-69.632-2.048-12.288-12.288-22.528-22.528-22.528zM215.040 273.92h595.968c4.096 22.528 14.336 40.96 30.72 57.344s36.864 26.624 57.344 30.72v167.936c-45.056 8.192-81.92 45.056-90.112 90.112h-593.92c-8.192-45.056-45.056-81.92-90.112-90.112v-167.936c45.056-6.144 79.872-43.008 90.112-88.064z" />
<glyph unicode="&#xe90a;" d="M888.832 284.16h51.2v-40.96h-51.2v40.96z" />
<glyph unicode="&#xe90b;" d="M888.832 652.8h51.2v-40.96h-51.2v40.96z" />
<glyph unicode="&#xe90c;" d="M83.968 652.8h51.2v-40.96h-51.2v40.96z" />
<glyph unicode="&#xe90d;" d="M83.968 284.16h51.2v-40.96h-51.2v40.96z" />
<glyph unicode="&#xe90e;" d="M512 560.64c61.44 0 112.64-49.152 112.64-112.64s-51.2-112.64-112.64-112.64-112.64 51.2-112.64 112.64 51.2 112.64 112.64 112.64z" />
<glyph unicode="&#xe90f;" d="M512 314.88c-73.728 0-133.12 59.392-133.12 133.12s59.392 133.12 133.12 133.12 133.12-59.392 133.12-133.12-59.392-133.12-133.12-133.12zM512 540.16c-51.2 0-92.16-40.96-92.16-92.16s40.96-92.16 92.16-92.16 92.16 40.96 92.16 92.16-40.96 92.16-92.16 92.16z" />
<glyph unicode="&#xe910;" d="M686.080 468.48h81.92v-40.96h-81.92v40.96z" />
<glyph unicode="&#xe911;" d="M258.048 468.48h81.92v-40.96h-81.92v40.96z" />
<glyph unicode="&#xe912;" d="M262.144 448h30.72v-266.24h-30.72v266.24z" />
<glyph unicode="&#xe913;" d="M262.144 464.384h-47.104c-8.192 0-16.384 6.144-16.384 16.384v94.208c0 8.192 6.144 16.384 16.384 16.384h47.104v-126.976z" />
<glyph unicode="&#xe914;" d="M645.12 947.712h-245.76c-34.816 0-65.536-24.576-73.728-57.344-65.536-8.192-114.688-63.488-114.688-131.072v-94.208c0-49.152 20.48-94.208 57.344-126.976v106.496c0 51.2 43.008 94.208 94.208 94.208h321.536c40.96 0 75.776-34.816 75.776-75.776v-126.976c36.864 32.768 57.344 77.824 57.344 126.976v114.688c-2.048 94.208-79.872 169.984-172.032 169.984z" />
<glyph unicode="&#xe915;" d="M512 267.776c-65.536 0-126.976 38.912-172.032 86.016 0 4.096 0-65.536 0-77.824 4.096-2.048 2.048-36.864 2.048-43.008 10.24-75.776 81.92-135.168 169.984-135.168 86.016 0 159.744 57.344 169.984 135.168 0 6.144-2.048 40.96 2.048 43.008 0 32.768 0 57.344 0 77.824-45.056-45.056-106.496-86.016-172.032-86.016z" />
<glyph unicode="&#xe916;" d="M677.888 339.456c-43.008-43.008-102.4-69.632-165.888-69.632-65.536 0-126.976 38.912-172.032 86.016 0-20.48 0-90.112 0-77.824 4.096-2.048 2.048-36.864 2.048-43.008 4.096-34.816 20.48-63.488 45.056-88.064 114.688 14.336 243.712 126.976 290.816 192.512z" />
<glyph unicode="&#xe917;" d="M292.864 431.616h-47.104c-8.192 0-16.384 6.144-16.384 16.384v155.648c0 8.192 6.144 16.384 16.384 16.384h47.104v-188.416z" />
<glyph unicode="&#xe918;" d="M761.856 464.384h47.104c8.192 0 16.384 6.144 16.384 16.384v94.208c0 8.192-6.144 16.384-16.384 16.384h-47.104v-126.976z" />
<glyph unicode="&#xe919;" d="M731.136 431.616h47.104c8.192 0 16.384 6.144 16.384 16.384v155.648c0 8.192-6.144 16.384-16.384 16.384h-47.104v-188.416z" />
<glyph unicode="&#xe91a;" d="M681.984 740.864h-321.536c-51.2 0-94.208-43.008-94.208-94.208v-112.64c0-145.408 110.592-264.192 245.76-264.192s245.76 116.736 245.76 262.144v133.12c0 40.96-34.816 75.776-75.776 75.776z" />
<glyph unicode="&#xe91b;" d="M645.12 339.456c-36.864 0-75.776 16.384-112.64 49.152-6.144 6.144-6.144 16.384 0 22.528s16.384 6.144 22.528 0c38.912-36.864 81.92-49.152 120.832-36.864 36.864 12.288 67.584 49.152 75.776 92.16 2.048 8.192 10.24 14.336 18.432 12.288s14.336-10.24 12.288-18.432c-10.24-55.296-49.152-100.352-96.256-114.688-14.336-4.096-28.672-6.144-40.96-6.144z" />
<glyph unicode="&#xe91c;" d="M573.44 400.896c0-16.966-13.754-30.72-30.72-30.72s-30.72 13.754-30.72 30.72c0 16.966 13.754 30.72 30.72 30.72s30.72-13.754 30.72-30.72z" />
<glyph unicode="&#xe91d;" d="M854.016 189.952l-106.496 24.576-235.52-126.976-235.52 126.976-106.496-24.576c-57.344-12.288-96.256-63.488-96.256-120.832v-73.728c0-26.624 20.48-47.104 47.104-47.104h782.336c26.624 0 47.104 20.48 47.104 47.104v73.728c0 57.344-40.96 106.496-96.256 120.832z" />
<glyph unicode="&#xe91e;" d="M495.616 103.936h30.72v-155.648h-30.72v155.648z" />
<glyph unicode="&#xe91f;" d="M512 103.936l-94.208-81.92c-16.384-14.336-38.912-8.192-49.152 10.24l-92.16 182.272 63.488 63.488 172.032-174.080z" />
<glyph unicode="&#xe920;" d="M512 103.936l94.208-81.92c16.384-14.336 38.912-8.192 49.152 10.24l92.16 182.272-63.488 63.488-172.032-174.080z" />
<glyph unicode="&#xe921;" glyph-name="Beisbol_password" d="M880.64 835.072h-737.28c-71.68 0-131.072-59.392-131.072-131.072v-358.4c0-71.68 59.392-131.072 131.072-131.072h315.392v-94.208h-135.168c-16.384 0-30.72-14.336-30.72-28.672v-4.096c0-16.384 14.336-30.72 30.72-30.72h376.832c16.384 0 30.72 14.336 30.72 30.72v4.096c0 16.384-14.336 28.672-30.72 28.672h-135.168v94.208h315.392c71.68 0 131.072 59.392 131.072 131.072v360.448c-2.048 71.68-59.392 129.024-131.072 129.024zM841.728 495.104c0-45.056-36.864-79.872-79.872-79.872h-497.664c-45.056 0-79.872 36.864-79.872 79.872v63.488c0 45.056 36.864 79.872 79.872 79.872h495.616c45.056 0 79.872-36.864 79.872-79.872l2.048-63.488zM380.928 527.872l-10.24 32.768-20.48-10.24c-2.048-2.048-6.144-2.048-10.24-4.096-2.048 0-4.096-2.048-8.192-4.096 2.048 6.144 4.096 14.336 4.096 18.432l2.048 22.528h-32.768l2.048-22.528c0-4.096 2.048-10.24 4.096-18.432-8.192 6.144-14.336 8.192-16.384 10.24l-20.48 10.24-10.24-32.768 24.576-4.096c8.192-2.048 14.336-2.048 18.432-2.048-4.096-4.096-10.24-8.192-14.336-12.288l-16.384-16.384 28.672-20.48 12.288 20.48c2.048 2.048 4.096 8.192 8.192 16.384 4.096-8.192 6.144-14.336 8.192-16.384l10.24-20.48 26.624 20.48-16.384 16.384c-4.096 4.096-8.192 8.192-14.336 12.288 8.192 0 14.336 0 18.432 2.048l22.528 2.048zM571.392 527.872l-10.24 32.768-20.48-10.24c-2.048-2.048-6.144-2.048-10.24-4.096-2.048 0-4.096-2.048-8.192-4.096 2.048 6.144 4.096 14.336 4.096 18.432l2.048 22.528h-32.768l2.048-22.528c0-4.096 2.048-10.24 4.096-18.432-8.192 6.144-14.336 8.192-16.384 10.24l-20.48 10.24-10.24-32.768 24.576-4.096c8.192-2.048 14.336-2.048 18.432-2.048-4.096-4.096-10.24-8.192-14.336-12.288l-16.384-16.384 28.672-20.48 12.288 20.48c2.048 2.048 4.096 8.192 8.192 16.384 4.096-8.192 6.144-14.336 8.192-16.384l10.24-20.48 26.624 20.48-16.384 16.384c-4.096 4.096-8.192 8.192-14.336 12.288 8.192 0 14.336 0 18.432 2.048l22.528 2.048zM729.088 548.352c-2.048-2.048-6.144-2.048-10.24-4.096-2.048 0-4.096-2.048-8.192-4.096 2.048 6.144 4.096 14.336 4.096 18.432l2.048 22.528h-32.768l2.048-22.528c0-4.096 2.048-10.24 4.096-18.432-8.192 6.144-14.336 8.192-16.384 10.24l-20.48 10.24-10.24-32.768 24.576-4.096c8.192-2.048 14.336-2.048 18.432-2.048-4.096-4.096-10.24-8.192-14.336-12.288l-16.384-16.384 28.672-20.48 12.288 20.48c2.048 2.048 4.096 8.192 8.192 16.384 4.096-8.192 6.144-14.336 8.192-16.384l10.24-20.48 26.624 20.48-16.384 16.384c-4.096 4.096-8.192 8.192-14.336 12.288 8.192 0 14.336 0 18.432 2.048l22.528 4.096-10.24 32.768-20.48-12.288z" />
<glyph unicode="&#xe922;" d="M1009.664 448c0-274.852-222.812-497.664-497.664-497.664s-497.664 222.812-497.664 497.664c0 274.852 222.812 497.664 497.664 497.664s497.664-222.812 497.664-497.664z" />
<glyph unicode="&#xe923;" d="M843.776 138.752l-24.576 36.864c-6.144-4.096-12.288-8.192-18.432-12.288-8.192 14.336-16.384 28.672-24.576 45.056l20.48 8.192-18.432 38.912-20.48-8.192c-6.144 14.336-12.288 30.72-16.384 47.104l20.48 6.144-10.24 40.96-20.48-6.144c-4.096 16.384-6.144 30.72-8.192 47.104l22.528 2.048-4.096 43.008-22.528-2.048c0 8.192 0 16.384 0 24.576s0 16.384 0 24.576c6.144 0 14.336-2.048 22.528-2.048l4.096 43.008c-8.192 0-14.336 2.048-22.528 2.048 2.048 16.384 4.096 30.72 8.192 47.104 6.144-2.048 14.336-4.096 20.48-6.144l10.24 40.96c-8.192 2.048-14.336 4.096-20.48 6.144 4.096 16.384 10.24 30.72 16.384 47.104l20.48-8.192 18.432 38.912-20.48 8.192c8.192 14.336 16.384 30.72 24.576 45.056l18.432-12.288 24.576 34.816-20.48 14.336c10.24 12.288 18.432 26.624 28.672 38.912-10.24 10.24-20.48 18.432-32.768 28.672-12.288-14.336-22.528-28.672-32.768-43.008l-24.576 16.384-22.528-38.912 24.576-16.384c-10.24-16.384-18.432-32.768-28.672-51.2l-28.672 12.288-18.432-38.912 28.672-12.288c-6.144-18.432-12.288-34.816-18.432-53.248-8.192 2.048-18.432 4.096-30.72 8.192l-10.24-40.96c12.288-2.048 20.48-6.144 30.72-8.192-4.096-18.432-6.144-36.864-10.24-55.296-6.144 0-14.336 2.048-20.48 2.048h-10.24l-4.096-43.008h10.24c8.192 0 14.336-2.048 20.48-2.048 0-8.192 0-18.432 0-26.624s0-18.432 0-26.624l-30.72-2.048 4.096-43.008 30.72 2.048c2.048-18.432 6.144-36.864 10.24-55.296l-30.72-8.192 10.24-40.96 30.72 8.192c6.144-18.432 12.288-34.816 18.432-53.248l-28.672-12.288 18.432-38.912 28.672 12.288c8.192-16.384 18.432-34.816 28.672-51.2l-24.576-20.48 24.576-34.816 24.576 16.384c10.24-14.336 20.48-28.672 32.768-43.008 12.288 8.192 22.528 18.432 32.768 28.672-10.24 12.288-20.48 26.624-28.672 38.912 4.096 4.096 10.24 8.192 18.432 12.288z" />
<glyph unicode="&#xe924;" d="M348.16 448c0 8.192 0 18.432 0 26.624 6.144 0 14.336 2.048 20.48 2.048h8.192l-4.096 43.008h-8.192c-8.192 0-14.336-2.048-20.48-2.048-2.048 18.432-6.144 36.864-10.24 55.296 8.192 2.048 18.432 4.096 30.72 8.192l-10.24 40.96c-12.288-2.048-20.48-6.144-30.72-8.192-6.144 18.432-12.288 34.816-18.432 53.248l28.672 12.288-18.432 38.912-28.672-10.24c-8.192 16.384-18.432 34.816-28.672 51.2l26.624 16.384-24.576 34.816-24.576-16.384c-10.24 14.336-20.48 28.672-32.768 43.008-10.24-8.192-20.48-18.432-30.72-26.624 10.24-12.288 20.48-26.624 28.672-38.912l-20.48-14.336 24.576-34.816 18.432 12.288c8.192-14.336 16.384-28.672 24.576-45.056l-20.48-8.192 18.432-38.912 20.48 8.192c6.144-14.336 12.288-30.72 16.384-47.104-6.144-2.048-14.336-4.096-20.48-6.144l10.24-40.96c8.192 2.048 14.336 4.096 20.48 6.144 4.096-16.384 6.144-30.72 8.192-47.104-6.144 0-14.336-2.048-22.528-2.048l4.096-43.008c8.192 0 14.336 2.048 22.528 2.048 0-8.192 0-16.384 0-24.576s0-16.384 0-24.576l-22.528 2.048-4.096-43.008 22.528-2.048c-2.048-16.384-4.096-30.72-8.192-47.104l-20.48 6.144-10.24-40.96 20.48-6.144c-4.096-16.384-10.24-30.72-16.384-47.104l-20.48 8.192-18.432-38.912 20.48-8.192c-8.192-14.336-16.384-30.72-24.576-45.056-6.144 4.096-12.288 8.192-18.432 12.288l-24.576-34.816c8.192-4.096 14.336-10.24 20.48-14.336-10.24-12.288-18.432-26.624-28.672-38.912 10.24-10.24 20.48-18.432 32.768-28.672 12.288 14.336 22.528 28.672 32.768 43.008l24.576-16.384 24.576 34.816-24.576 16.384c10.24 16.384 18.432 32.768 28.672 51.2l28.672-12.288 18.432 38.912-28.672 12.288c6.144 18.432 12.288 34.816 18.432 53.248l30.72-8.192 10.24 40.96-30.72 8.192c4.096 18.432 6.144 36.864 10.24 55.296l30.72-2.048 4.096 43.008-34.816 6.144c0 8.192 0 18.432 0 26.624z" />
<glyph unicode="&#xe925;" d="M512 945.664v-993.28c274.432 0 497.664 223.232 497.664 497.664s-223.232 495.616-497.664 495.616z" />
<glyph unicode="&#xe926;" glyph-name="Beisbol_phone" d="M993.28 269.824c-32.768 61.44-147.456 129.024-151.552 133.12-14.336 8.192-30.72 12.288-45.056 12.288-20.48 0-38.912-10.24-49.152-26.624-16.384-20.48-36.864-43.008-43.008-47.104-38.912-26.624-69.632-22.528-102.4 10.24l-188.416 188.416c-32.768 32.768-36.864 63.488-10.24 102.4 4.096 4.096 26.624 26.624 47.104 43.008 12.288 8.192 20.48 18.432 24.576 32.768 4.096 18.432 2.048 40.96-10.24 61.44-2.048 4.096-69.632 118.784-133.12 151.552-10.24 4.096-22.528 8.192-36.864 8.192-22.528 0-40.96-8.192-57.344-24.576l-40.96-40.96c-65.536-65.536-90.112-139.264-69.632-221.184 16.384-67.584 61.44-139.264 135.168-215.040l241.664-241.664c79.872-79.872 157.696-126.976 229.376-139.264-18.432-40.96-59.392-69.632-106.496-69.632-51.2 0-96.256 32.768-110.592 81.92l-14.336 51.2c-2.048 10.24-12.288 16.384-22.528 16.384s-18.432-6.144-22.528-16.384l-26.624-90.112-26.624 90.112c-2.048 10.24-12.288 16.384-22.528 16.384s-18.432-6.144-22.528-16.384l-26.624-90.112-26.624 90.112c-2.048 10.24-12.288 16.384-22.528 16.384s-18.432-6.144-22.528-16.384l-26.624-90.112-26.624 90.112c-2.048 10.24-12.288 16.384-22.528 16.384s-18.432-6.144-22.528-16.384l-26.624-90.112-26.624 90.112c-2.048 10.24-12.288 16.384-22.528 16.384s-18.432-6.144-22.528-16.384l-43.008-143.36c-2.048-8.192 2.048-18.432 10.24-20.48 2.048 0 4.096 0 4.096 0 6.144 0 14.336 4.096 16.384 12.288l34.816 110.592 26.624-90.112c2.048-10.24 12.288-16.384 22.528-16.384s18.432 6.144 22.528 16.384l26.624 90.112 26.624-90.112c2.048-10.24 12.288-16.384 22.528-16.384s18.432 6.144 22.528 16.384l26.624 90.112 26.624-90.112c2.048-10.24 12.288-16.384 22.528-16.384s18.432 6.144 22.528 16.384l26.624 90.112 26.624-90.112c2.048-10.24 12.288-16.384 22.528-16.384s18.432 6.144 22.528 16.384l26.624 90.112 6.144-18.432c18.432-63.488 75.776-104.448 141.312-104.448s118.784 40.96 139.264 100.352c2.048 0 2.048 0 4.096 0 0 0 0 0 0 0 61.44 0 116.736 26.624 167.936 77.824l40.96 40.96c26.624 24.576 30.72 61.44 14.336 94.208z" />
<glyph unicode="&#xe927;" glyph-name="Beisbol_search" d="M1013.76 42.496l-233.472 247.808c-18.432 20.48-40.96 32.768-61.44 36.864 38.912 61.44 63.488 133.12 63.488 210.944 0 212.992-172.032 385.024-385.024 385.024-215.040-2.048-387.072-174.080-387.072-387.072s172.032-385.024 385.024-385.024c88.064 0 167.936 28.672 233.472 79.872l204.8-217.088c38.912-40.96 94.208-51.2 124.928-22.528l55.296 51.2zM677.888 536.064c0-155.648-126.976-282.624-282.624-282.624s-282.624 126.976-282.624 282.624c0 155.648 126.976 282.624 282.624 282.624s282.624-126.976 282.624-282.624z" />
<glyph unicode="&#xe928;" glyph-name="Beisbol_submenu" d="M641.024 810.496c0-71.258-57.766-129.024-129.024-129.024s-129.024 57.766-129.024 129.024c0 71.258 57.766 129.024 129.024 129.024s129.024-57.766 129.024-129.024zM641.024 448c0-71.258-57.766-129.024-129.024-129.024s-129.024 57.766-129.024 129.024c0 71.258 57.766 129.024 129.024 129.024s129.024-57.766 129.024-129.024zM641.024 85.504c0-71.258-57.766-129.024-129.024-129.024s-129.024 57.766-129.024 129.024c0 71.258 57.766 129.024 129.024 129.024s129.024-57.766 129.024-129.024z" />
<glyph unicode="&#xe929;" glyph-name="Beisbol_upload" d="M673.792 415.232c-47.104-22.528-86.016-90.112-131.072-45.056-26.624 28.672-59.392 75.776-96.256 131.072-40.96 57.344-92.16 106.496-151.552 51.2-67.584-63.488-114.688-235.52-116.736-323.584h636.928c-16.384 49.152-71.68 219.136-141.312 186.368zM749.568 593.408c0-42.981-34.843-77.824-77.824-77.824s-77.824 34.843-77.824 77.824c0 42.981 34.843 77.824 77.824 77.824s77.824-34.843 77.824-77.824zM516.096-57.856c-276.48 0-499.712 225.28-499.712 499.712s225.28 499.712 499.712 499.712 499.712-225.28 499.712-499.712-223.232-499.712-499.712-499.712zM516.096 867.84c-235.52 0-425.984-190.464-425.984-425.984s190.464-425.984 425.984-425.984 425.984 192.512 425.984 425.984-190.464 425.984-425.984 425.984z" />
<glyph unicode="&#xe92a;" glyph-name="Beisbol_vendedor" d="M788.48 304.64c-38.912-53.248-102.4-88.064-172.032-88.064h-98.304c-34.816 0-63.488 22.528-73.728 51.2-14.336 4.096-26.624 10.24-40.96 16.384-26.624 14.336-53.248 32.768-75.776 55.296-143.36-30.72-249.856-157.696-249.856-311.296v-20.48c0-26.624 22.528-49.152 49.152-49.152h770.048c26.624 0 49.152 22.528 49.152 49.152v20.48c0 118.784-63.488 221.184-157.696 276.48zM274.432 443.904c20.48 0 38.912 12.288 49.152 28.672v-2.048c22.528-59.392 65.536-108.544 124.928-131.072 14.336 22.528 38.912 36.864 67.584 36.864h98.304c10.24 0 18.432 2.048 26.624 8.192 14.336 8.192 26.624 26.624 32.768 36.864 10.24 16.384 18.432 32.768 24.576 53.248 4.096-6.144 10.24-12.288 16.384-18.432v-24.576c0-55.296-45.056-100.352-100.352-100.352h-98.304c-18.432 0-34.816-14.336-34.816-34.816 0-18.432 14.336-34.816 34.816-34.816h98.304c92.16 0 167.936 75.776 167.936 167.936v24.576c14.336 10.24 22.528 26.624 22.528 45.056v141.312c0 18.432-10.24 34.816-22.528 45.056-10.24 141.312-129.024 251.904-270.336 251.904s-260.096-110.592-270.336-249.856c-14.336-10.24-22.528-26.624-22.528-45.056v-141.312c-2.048-32.768 24.576-57.344 55.296-57.344zM512 867.84c104.448 0 192.512-79.872 202.752-182.272-6.144-6.144-12.288-12.288-16.384-20.48-32.768 83.968-104.448 141.312-186.368 141.312-83.968 0-155.648-59.392-186.368-141.312v0c-4.096 8.192-10.24 14.336-16.384 20.48 10.24 102.4 98.304 182.272 202.752 182.272z" />
<glyph unicode="&#xe92b;" glyph-name="Beisbol_vs" d="M391.168 142.848h-120.832l-258.048 622.592h131.072l186.368-481.28 186.368 481.28h131.072l-256-622.592zM931.84 466.432c-30.72 28.672-65.536 38.912-108.544 38.912-51.2 0-79.872-16.384-79.872-43.008 0-28.672 26.624-45.056 81.92-47.104 81.92-6.144 186.368-24.576 186.368-139.264 0-77.824-63.488-143.36-186.368-143.36-69.632 0-137.216 12.288-200.704 77.824l53.248 77.824c30.72-34.816 102.4-59.392 149.504-61.44 40.96 0 77.824 20.48 77.824 51.2s-24.576 43.008-86.016 45.056c-81.92 6.144-180.224 36.864-180.224 135.168 0 100.352 104.448 135.168 184.32 135.168 67.584 0 118.784-12.288 169.984-57.344l-61.44-69.632z" />
</font>
</defs>
</svg>
